{"title":"The.Expendables.2010.480p.BRRip.H264.Feel-Free","uid":5951508,"size":1451223364,"categoryP":"video","categoryS":"movies","magnet":"?xt=urn:btih:75028f2d7ed4d412307375b55db4c2d7bedd35ce&amp;dn=The.Expendables.2010.480p.BRRip.H264.Feel-Free&amp;tr=udp%3A%2F%2Ftracker.openbittorrent.com%3A80&amp;tr=udp%3A%2F%2Fopen.demonii.com%3A1337&amp;tr=udp%3A%2F%2Ftracker.coppersurfer.tk%3A6969&amp;tr=udp%3A%2F%2Fexodus.desync.com%3A6969","seeders":0,"leechers":0,"uploader":"hiest","files":-1,"time":1289544992,"description":"Genre:Action | Adventure | Thriller\nLanguage:English\nIMDb:http://www.imdb.com/title/tt1320253/\nSource:720p.BluRay.x264-Felony\n\nGeneral\nComplete name :The.Expendables.2010.480p.BRRip.H264.Feel-Free\nFormat : MPEG-4\nFormat profile : Base Media / Version 2\nCodec ID : mp42\nFile size : 1.35 GiB\nDuration : 1h 43mn\nOverall bit rate : 1 865 Kbps\nVideo #1\nCodec ID : avc1\nCodec ID/Info : Advanced Video Coding\nDuration : 1h 43mn\nBit rate mode : Variable\nBit rate : 1 384 Kbps\nWidth : 720 pixels\nHeight : 304 pixels\nDisplay aspect ratio : 2.35:1\nFrame rate mode : Constant\nFrame rate : 23.976 fps\nResolution : 24 bits\nColorimetry : 4:2:0\nScan type : Progressive\nBits/(Pixel*Frame) : 0.264\nStream size : 1.00 GiB (74%)\nAudio #2\nID : 2\nFormat : AAC\nFormat/Info : Advanced Audio Codec\nFormat version : Version 4\nFormat profile : LC\nFormat settings, SBR : No\nCodec ID : 40\nDuration : 1h 43mn\nBit rate mode : Constant\nBit rate : 477 Kbps\nNominal bit rate : 480 Kbps\nChannel(s) : 6 channels\nChannel positions : Front: L C R, Rear: L R, LFE\nSampling rate : 48.0 KHz\nResolution : 16 bits\nStream size : 353 MiB (26%)\n\nPlot\nA team of mercenaries head to South America on a mission to overthrow a dictator\n\n\n\n\n\n\n\n\n\n\n================================== &lt;a href=&quot;\nhttp://thepiratebay.se/user/hiest&quot; rel=&quot;nofollow&quot; target=&quot;_NEW&quot;&gt;\nhttp://thepiratebay.se/user/hiest&lt;/a&gt;\n==================================\n\n\n\n\n\n\n\n\n\n\n\nScreenshots:\n &lt;a href=&quot;\nhttp://rapidhdd.com/images/199856vlcsnap-2010-11-12-06h49m49s89.png&quot; rel=&quot;nofollow&quot; target=&quot;_NEW&quot;&gt;\nhttp://rapidhdd.com/images/199856vlcsnap-2010-11-12-06h49m49s89.png&lt;/a&gt;\n &lt;a href=&quot;\nhttp://www.rapidhdd.com/images/736003vlcsnap-2010-11-12-06h51m33s118.png&quot; rel=&quot;nofollow&quot; target=&quot;_NEW&quot;&gt;\nhttp://www.rapidhdd.com/images/736003vlcsnap-2010-11-12-06h51m33s118.png&lt;/a&gt;\n &lt;a href=&quot;\nhttp://www.rapidhdd.com/images/833809vlcsnap-2010-11-12-06h55m48s105.png&quot; rel=&quot;nofollow&quot; target=&quot;_NEW&quot;&gt;\nhttp://www.rapidhdd.com/images/833809vlcsnap-2010-11-12-06h55m48s105.png&lt;/a&gt;\n &lt;a href=&quot;\nhttp://www.rapidhdd.com/images/35845vlcsnap-2010-11-12-06h52m05s174.png&quot; rel=&quot;nofollow&quot; target=&quot;_NEW&quot;&gt;\nhttp://www.rapidhdd.com/images/35845vlcsnap-2010-11-12-06h52m05s174.png&lt;/a&gt;\n &lt;a href=&quot;\nhttp://www.rapidhdd.com/images/634467vlcsnap-2010-11-12-06h53m25s211.png&quot; rel=&quot;nofollow&quot; target=&quot;_NEW&quot;&gt;\nhttp://www.rapidhdd.com/images/634467vlcsnap-2010-11-12-06h53m25s211.png&lt;/a&gt;\n &lt;a href=&quot;\nhttp://www.rapidhdd.com/images/125994vlcsnap-2010-11-12-06h50m17s131.png&quot; rel=&quot;nofollow&quot; target=&quot;_NEW&quot;&gt;\nhttp://www.rapidhdd.com/images/125994vlcsnap-2010-11-12-06h50m17s131.png&lt;/a&gt;\n &lt;a href=&quot;\nhttp://www.rapidhdd.com/images/304680vlcsnap-2010-11-12-06h53m48s164.png&quot; rel=&quot;nofollow&quot; target=&quot;_NEW&quot;&gt;\nhttp://www.rapidhdd.com/images/304680vlcsnap-2010-11-12-06h53m48s164.png&lt;/a&gt;\n &lt;a href=&quot;\nhttp://www.rapidhdd.com/images/717154vlcsnap-2010-11-12-06h53m33s39.png&quot; rel=&quot;nofollow&quot; target=&quot;_NEW&quot;&gt;\nhttp://www.rapidhdd.com/images/717154vlcsnap-2010-11-12-06h53m33s39.png&lt;/a&gt;","torrent":{"xt":"urn:btih:75028f2d7ed4d412307375b55db4c2d7bedd35ce","amp;dn":"The.Expendables.2010.480p.BRRip.H264.Feel-Free","amp;tr":["udp%3A%2F%2Ftracker.openbittorrent.com%3A80","udp%3A%2F%2Fopen.demonii.com%3A1337","udp%3A%2F%2Ftracker.coppersurfer.tk%3A6969","udp%3A%2F%2Fexodus.desync.com%3A6969"],"infoHash":"75028f2d7ed4d412307375b55db4c2d7bedd35ce","infoHashBuffer":{"type":"Buffer","data":[117,2,143,45,126,212,212,18,48,115,117,181,93,180,194,215,190,221,53,206]},"announce":[],"urlList":[]}}